
<svg version="1.0" xmlns="http://www.w3.org/2000/svg"
 width="200.000000pt" height="54.000000pt" viewBox="0 0 200.000000 54.000000"
 preserveAspectRatio="xMidYMid meet">
<metadata>
Created by potrace 1.16, written by Peter Selinger 2001-2019
</metadata>
<g transform="translate(0.000000,54.000000) scale(0.100000,-0.100000)"
fill="#7C597E" stroke="none">
<path d="M210 493 c-42 -16 -101 -78 -131 -139 -52 -105 -44 -217 19 -286 37
-40 91 -37 245 12 149 48 187 74 187 128 0 123 -223 321 -320 285z m129 -107
c34 -18 51 -54 51 -112 0 -51 -21 -98 -49 -114 -11 -5 -47 -10 -80 -10 l-61 0
0 118 c0 65 3 122 7 125 12 13 104 7 132 -7z"/>
</g>
</svg>
